<mxfile host="app.diagrams.net" modified="2021-12-05T20:59:22.738Z" agent="5.0 (Windows NT 10.0; Win64; x64) AppleWebKit/537.36 (KHTML, like Gecko) Chrome/96.0.4664.55 Safari/537.36 Edg/96.0.1054.34" etag="yqsucCcUuUtTIA7OiFSr" version="15.8.8" type="github">
  <diagram id="v4N3vMvehRNXi0SuDzTw" name="Page-1">
    <mxGraphModel dx="539" dy="328" grid="1" gridSize="10" guides="1" tooltips="1" connect="1" arrows="1" fold="1" page="1" pageScale="1" pageWidth="850" pageHeight="1100" math="0" shadow="0">
      <root>
        <mxCell id="0" />
        <mxCell id="1" parent="0" />
        <mxCell id="w41fbBc1EU1J64O-akjk-1" value="" style="endArrow=classic;html=1;rounded=0;" edge="1" parent="1">
          <mxGeometry width="50" height="50" relative="1" as="geometry">
            <mxPoint x="360" y="270" as="sourcePoint" />
            <mxPoint x="360" y="160" as="targetPoint" />
          </mxGeometry>
        </mxCell>
        <mxCell id="w41fbBc1EU1J64O-akjk-2" value="" style="endArrow=classic;html=1;rounded=0;" edge="1" parent="1">
          <mxGeometry width="50" height="50" relative="1" as="geometry">
            <mxPoint x="360" y="270" as="sourcePoint" />
            <mxPoint x="580" y="270" as="targetPoint" />
          </mxGeometry>
        </mxCell>
        <mxCell id="w41fbBc1EU1J64O-akjk-3" value="" style="curved=1;endArrow=none;html=1;rounded=0;strokeColor=#00FF00;endFill=0;fillColor=#ffe6cc;" edge="1" parent="1">
          <mxGeometry width="50" height="50" relative="1" as="geometry">
            <mxPoint x="360" y="270" as="sourcePoint" />
            <mxPoint x="410" y="270" as="targetPoint" />
            <Array as="points">
              <mxPoint x="370" y="250" />
              <mxPoint x="380" y="190" />
              <mxPoint x="390" y="190" />
              <mxPoint x="400" y="250" />
            </Array>
          </mxGeometry>
        </mxCell>
        <mxCell id="w41fbBc1EU1J64O-akjk-5" value="" style="curved=1;endArrow=none;html=1;rounded=0;strokeColor=#0000FF;endFill=0;" edge="1" parent="1">
          <mxGeometry width="50" height="50" relative="1" as="geometry">
            <mxPoint x="430" y="270" as="sourcePoint" />
            <mxPoint x="570" y="270" as="targetPoint" />
            <Array as="points">
              <mxPoint x="440" y="250" />
              <mxPoint x="450" y="200" />
              <mxPoint x="470" y="170" />
              <mxPoint x="500" y="170" />
              <mxPoint x="520" y="170" />
              <mxPoint x="530" y="180" />
              <mxPoint x="550" y="200" />
              <mxPoint x="560" y="240" />
              <mxPoint x="560" y="260" />
            </Array>
          </mxGeometry>
        </mxCell>
        <mxCell id="w41fbBc1EU1J64O-akjk-6" value="" style="curved=1;endArrow=none;html=1;rounded=0;strokeColor=#FF0000;endFill=0;" edge="1" parent="1">
          <mxGeometry width="50" height="50" relative="1" as="geometry">
            <mxPoint x="390" y="270" as="sourcePoint" />
            <mxPoint x="500" y="270" as="targetPoint" />
            <Array as="points">
              <mxPoint x="400" y="250" />
              <mxPoint x="410" y="190" />
              <mxPoint x="450" y="190" />
              <mxPoint x="460" y="200" />
              <mxPoint x="470" y="230" />
              <mxPoint x="480" y="260" />
            </Array>
          </mxGeometry>
        </mxCell>
        <mxCell id="w41fbBc1EU1J64O-akjk-8" value="" style="endArrow=classic;html=1;rounded=0;" edge="1" parent="1">
          <mxGeometry width="50" height="50" relative="1" as="geometry">
            <mxPoint x="360" y="140" as="sourcePoint" />
            <mxPoint x="360" y="30.000000000000057" as="targetPoint" />
          </mxGeometry>
        </mxCell>
        <mxCell id="w41fbBc1EU1J64O-akjk-9" value="" style="endArrow=classic;html=1;rounded=0;" edge="1" parent="1">
          <mxGeometry width="50" height="50" relative="1" as="geometry">
            <mxPoint x="360" y="70" as="sourcePoint" />
            <mxPoint x="580" y="70" as="targetPoint" />
          </mxGeometry>
        </mxCell>
        <mxCell id="w41fbBc1EU1J64O-akjk-10" value="" style="curved=1;endArrow=none;html=1;rounded=0;strokeColor=#A680B8;endFill=0;" edge="1" parent="1">
          <mxGeometry width="50" height="50" relative="1" as="geometry">
            <mxPoint x="360" y="70.12" as="sourcePoint" />
            <mxPoint x="530" y="70" as="targetPoint" />
            <Array as="points">
              <mxPoint x="370" y="70" />
              <mxPoint x="380" y="90" />
              <mxPoint x="390" y="160" />
              <mxPoint x="410" y="70" />
              <mxPoint x="420" y="60" />
              <mxPoint x="450" y="70" />
            </Array>
          </mxGeometry>
        </mxCell>
        <mxCell id="w41fbBc1EU1J64O-akjk-11" value="&lt;font style=&quot;font-size: 10px&quot;&gt;Hz&lt;/font&gt;" style="text;html=1;strokeColor=none;fillColor=none;align=center;verticalAlign=middle;whiteSpace=wrap;rounded=0;" vertex="1" parent="1">
          <mxGeometry x="310" y="20" width="60" height="30" as="geometry" />
        </mxCell>
        <mxCell id="w41fbBc1EU1J64O-akjk-12" value="&lt;span style=&quot;font-size: 10px&quot;&gt;MW&lt;/span&gt;" style="text;html=1;strokeColor=none;fillColor=none;align=center;verticalAlign=middle;whiteSpace=wrap;rounded=0;" vertex="1" parent="1">
          <mxGeometry x="310" y="150" width="60" height="30" as="geometry" />
        </mxCell>
        <mxCell id="w41fbBc1EU1J64O-akjk-13" value="&lt;font style=&quot;font-size: 10px&quot;&gt;t&lt;br&gt;&lt;/font&gt;" style="text;html=1;strokeColor=none;fillColor=none;align=center;verticalAlign=middle;whiteSpace=wrap;rounded=0;" vertex="1" parent="1">
          <mxGeometry x="540" y="70" width="60" height="30" as="geometry" />
        </mxCell>
        <mxCell id="w41fbBc1EU1J64O-akjk-15" value="&lt;font style=&quot;font-size: 10px&quot;&gt;t&lt;br&gt;&lt;/font&gt;" style="text;html=1;strokeColor=none;fillColor=none;align=center;verticalAlign=middle;whiteSpace=wrap;rounded=0;" vertex="1" parent="1">
          <mxGeometry x="540" y="270" width="60" height="30" as="geometry" />
        </mxCell>
      </root>
    </mxGraphModel>
  </diagram>
</mxfile>
